<?xml version="1.0" encoding="UTF-8" standalone="no"?>
<!-- Generator: Adobe Illustrator 28.3.0, SVG Export Plug-In . SVG Version: 6.00 Build 0)  -->

<svg
   version="1.1"
   id="Layer_1"
   x="0px"
   y="0px"
   viewBox="0 595 1155 360"
   xml:space="preserve"
   width="1155"
   height="360"
   xmlns="http://www.w3.org/2000/svg"
   xmlns:svg="http://www.w3.org/2000/svg"><defs
   id="defs320" />









<g
   id="g267"
   transform="translate(-702.20697,-3.526)">
	<g
   id="g266">
		<path
   style="fill:#00458b"
   d="m 1702.58,741.709 h -52.876 V 888.701 H 1617.32 V 741.709 h -53.13 v -28.842 h 138.39 z"
   id="path215" />
		<g
   id="g247">
			<path
   style="fill:#f5d704"
   d="m 1080.34,917.631 h 4.953 c 1.992,0 3.524,0.236 4.595,0.709 1.07,0.473 1.915,1.198 2.536,2.177 0.62,0.98 0.931,2.067 0.931,3.262 0,1.116 -0.271,2.133 -0.816,3.048 -0.543,0.917 -1.343,1.66 -2.396,2.229 1.306,0.444 2.31,0.965 3.014,1.562 0.704,0.598 1.251,1.322 1.643,2.17 0.392,0.848 0.588,1.768 0.588,2.758 0,2.016 -0.738,3.721 -2.213,5.115 -1.474,1.395 -3.453,2.093 -5.934,2.093 h -6.901 z m 2.459,2.459 v 8.045 h 1.438 c 1.745,0 3.029,-0.163 3.851,-0.487 0.821,-0.324 1.471,-0.837 1.951,-1.537 0.48,-0.7 0.719,-1.477 0.719,-2.331 0,-1.15 -0.402,-2.052 -1.207,-2.707 -0.804,-0.655 -2.085,-0.983 -3.843,-0.983 z m 0,10.572 v 9.633 h 3.114 c 1.836,0 3.182,-0.179 4.038,-0.538 0.855,-0.359 1.543,-0.92 2.062,-1.682 0.518,-0.763 0.778,-1.588 0.778,-2.476 0,-1.117 -0.365,-2.09 -1.095,-2.921 -0.729,-0.83 -1.732,-1.401 -3.009,-1.708 -0.856,-0.204 -2.345,-0.307 -4.468,-0.307 h -1.42 z"
   id="path216" />
			<path
   style="fill:#f5d704"
   d="m 1100.494,917.631 h 5.004 c 2.789,0 4.68,0.114 5.671,0.342 1.492,0.342 2.704,1.075 3.637,2.198 0.933,1.123 1.401,2.505 1.401,4.146 0,1.368 -0.321,2.571 -0.965,3.609 -0.643,1.038 -1.562,1.821 -2.758,2.352 -1.195,0.529 -2.847,0.801 -4.954,0.812 l 9.035,11.666 h -3.106 l -9.035,-11.666 h -1.419 v 11.666 h -2.511 z m 2.511,2.459 v 8.54 l 4.328,0.034 c 1.677,0 2.917,-0.159 3.721,-0.477 0.803,-0.32 1.431,-0.829 1.882,-1.529 0.45,-0.7 0.675,-1.483 0.675,-2.349 0,-0.842 -0.228,-1.608 -0.684,-2.297 -0.457,-0.688 -1.055,-1.182 -1.797,-1.477 -0.741,-0.296 -1.974,-0.445 -3.695,-0.445 z"
   id="path217" />
			<path
   style="fill:#f5d704"
   d="m 1121.228,917.631 h 2.511 v 25.124 h -2.511 z"
   id="path218" />
			<path
   style="fill:#f5d704"
   d="m 1129.512,942.755 v -25.124 h 0.546 l 16.721,19.259 v -19.259 h 2.476 v 25.124 h -0.564 l -16.584,-19.025 v 19.025 z"
   id="path219" />
			<path
   style="fill:#f5d704"
   d="m 1179.607,921.849 -1.948,1.845 c -1.4,-1.378 -2.934,-2.422 -4.603,-3.134 -1.668,-0.712 -3.294,-1.067 -4.876,-1.067 -1.97,0 -3.845,0.484 -5.628,1.452 -1.782,0.968 -3.162,2.28 -4.142,3.937 -0.979,1.657 -1.469,3.408 -1.469,5.252 0,1.89 0.506,3.687 1.521,5.389 1.013,1.703 2.413,3.04 4.201,4.014 1.787,0.973 3.746,1.46 5.875,1.46 2.585,0 4.772,-0.728 6.559,-2.187 1.788,-1.457 2.847,-3.348 3.177,-5.67 h -8.01 v -2.425 h 10.828 c -0.022,3.883 -1.175,6.966 -3.458,9.249 -2.283,2.283 -5.337,3.424 -9.163,3.424 -4.646,0 -8.323,-1.582 -11.034,-4.747 -2.083,-2.437 -3.126,-5.255 -3.126,-8.454 0,-2.38 0.598,-4.595 1.794,-6.644 1.195,-2.05 2.835,-3.652 4.919,-4.808 2.083,-1.156 4.441,-1.734 7.07,-1.734 2.129,0 4.133,0.385 6.012,1.153 1.879,0.766 3.713,1.999 5.501,3.695 z"
   id="path220" />
			<path
   style="fill:#f5d704"
   d="m 1185.516,917.631 h 2.511 v 25.124 h -2.511 z"
   id="path221" />
			<path
   style="fill:#f5d704"
   d="m 1193.8,942.755 v -25.124 h 0.546 l 16.721,19.259 v -19.259 h 2.476 v 25.124 h -0.564 l -16.584,-19.025 v 19.025 z"
   id="path222" />
			<path
   style="fill:#f5d704"
   d="m 1243.895,921.849 -1.948,1.845 c -1.4,-1.378 -2.934,-2.422 -4.603,-3.134 -1.668,-0.712 -3.294,-1.067 -4.876,-1.067 -1.97,0 -3.845,0.484 -5.628,1.452 -1.781,0.968 -3.162,2.28 -4.142,3.937 -0.979,1.657 -1.469,3.408 -1.469,5.252 0,1.89 0.506,3.687 1.521,5.389 1.013,1.703 2.413,3.04 4.201,4.014 1.787,0.973 3.746,1.46 5.875,1.46 2.585,0 4.772,-0.728 6.559,-2.187 1.788,-1.457 2.847,-3.348 3.177,-5.67 h -8.01 v -2.425 h 10.828 c -0.022,3.883 -1.175,6.966 -3.458,9.249 -2.283,2.283 -5.337,3.424 -9.163,3.424 -4.646,0 -8.323,-1.582 -11.034,-4.747 -2.083,-2.437 -3.126,-5.255 -3.126,-8.454 0,-2.38 0.598,-4.595 1.794,-6.644 1.195,-2.05 2.835,-3.652 4.919,-4.808 2.083,-1.156 4.441,-1.734 7.07,-1.734 2.129,0 4.133,0.385 6.013,1.153 1.878,0.766 3.712,1.999 5.5,3.695 z"
   id="path223" />
			<path
   style="fill:#f5d704"
   d="m 1257.353,920.09 v -2.459 h 13.766 v 2.459 h -5.602 v 22.665 h -2.562 V 920.09 Z"
   id="path224" />
			<path
   style="fill:#f5d704"
   d="m 1274.757,917.631 h 14.398 v 2.459 h -11.887 v 7.874 h 11.784 v 2.46 h -11.784 v 9.872 h 11.784 v 2.46 h -14.295 z"
   id="path225" />
			<path
   style="fill:#f5d704"
   d="m 1316.893,922.293 -1.981,1.521 c -1.093,-1.423 -2.406,-2.502 -3.938,-3.237 -1.532,-0.734 -3.214,-1.102 -5.046,-1.102 -2.005,0 -3.86,0.481 -5.569,1.443 -1.707,0.962 -3.032,2.254 -3.971,3.877 -0.939,1.623 -1.409,3.448 -1.409,5.475 0,3.062 1.051,5.619 3.152,7.669 2.1,2.049 4.75,3.074 7.95,3.074 3.519,0 6.462,-1.378 8.831,-4.133 l 1.981,1.503 c -1.253,1.594 -2.815,2.827 -4.689,3.698 -1.873,0.87 -3.965,1.306 -6.276,1.306 -4.395,0 -7.863,-1.463 -10.401,-4.389 -2.13,-2.471 -3.194,-5.454 -3.194,-8.95 0,-3.678 1.289,-6.772 3.869,-9.283 2.578,-2.511 5.81,-3.767 9.693,-3.767 2.345,0 4.463,0.464 6.353,1.392 1.889,0.929 3.437,2.229 4.645,3.903 z"
   id="path226" />
			<path
   style="fill:#f5d704"
   d="m 1321.896,917.631 h 2.511 v 10.538 h 12.792 v -10.538 h 2.511 v 25.124 h -2.511 v -12.126 h -12.792 v 12.126 h -2.511 z"
   id="path227" />
			<path
   style="fill:#f5d704"
   d="m 1345.842,942.755 v -25.124 h 0.546 l 16.721,19.259 v -19.259 h 2.476 v 25.124 h -0.564 l -16.584,-19.025 v 19.025 z"
   id="path228" />
			<path
   style="fill:#f5d704"
   d="m 1383.665,916.999 c 3.805,0 6.99,1.27 9.553,3.809 2.564,2.539 3.845,5.664 3.845,9.377 0,3.677 -1.279,6.797 -3.837,9.359 -2.558,2.562 -5.676,3.843 -9.356,3.843 -3.726,0 -6.871,-1.274 -9.434,-3.826 -2.564,-2.55 -3.845,-5.635 -3.845,-9.257 0,-2.413 0.584,-4.651 1.752,-6.712 1.168,-2.061 2.76,-3.675 4.777,-4.842 2.015,-1.167 4.197,-1.751 6.545,-1.751 z m 0.111,2.443 c -1.86,0 -3.622,0.484 -5.286,1.453 -1.666,0.969 -2.966,2.274 -3.901,3.914 -0.934,1.641 -1.403,3.47 -1.403,5.487 0,2.986 1.035,5.507 3.105,7.564 2.069,2.057 4.564,3.086 7.485,3.086 1.95,0 3.754,-0.473 5.413,-1.418 1.66,-0.946 2.954,-2.239 3.884,-3.881 0.93,-1.64 1.394,-3.464 1.394,-5.47 0,-1.993 -0.464,-3.797 -1.394,-5.41 -0.93,-1.613 -2.239,-2.903 -3.925,-3.872 -1.689,-0.97 -3.479,-1.453 -5.372,-1.453 z"
   id="path229" />
			<path
   style="fill:#f5d704"
   d="m 1402.102,917.631 h 2.511 v 22.698 h 9.667 v 2.425 h -12.178 z"
   id="path230" />
			<path
   style="fill:#f5d704"
   d="m 1430.224,916.999 c 3.806,0 6.99,1.27 9.553,3.809 2.564,2.539 3.846,5.664 3.846,9.377 0,3.677 -1.279,6.797 -3.837,9.359 -2.558,2.562 -5.676,3.843 -9.356,3.843 -3.726,0 -6.871,-1.274 -9.434,-3.826 -2.564,-2.55 -3.845,-5.635 -3.845,-9.257 0,-2.413 0.584,-4.651 1.752,-6.712 1.167,-2.061 2.76,-3.675 4.777,-4.842 2.014,-1.167 4.196,-1.751 6.544,-1.751 z m 0.111,2.443 c -1.86,0 -3.622,0.484 -5.286,1.453 -1.665,0.969 -2.966,2.274 -3.901,3.914 -0.934,1.641 -1.403,3.47 -1.403,5.487 0,2.986 1.035,5.507 3.105,7.564 2.069,2.057 4.564,3.086 7.485,3.086 1.95,0 3.754,-0.473 5.413,-1.418 1.66,-0.946 2.954,-2.239 3.884,-3.881 0.93,-1.64 1.394,-3.464 1.394,-5.47 0,-1.993 -0.464,-3.797 -1.394,-5.41 -0.93,-1.613 -2.239,-2.903 -3.925,-3.872 -1.689,-0.97 -3.479,-1.453 -5.372,-1.453 z"
   id="path231" />
			<path
   style="fill:#f5d704"
   d="m 1472.898,921.849 -1.948,1.845 c -1.4,-1.378 -2.934,-2.422 -4.603,-3.134 -1.668,-0.712 -3.294,-1.067 -4.876,-1.067 -1.97,0 -3.845,0.484 -5.628,1.452 -1.782,0.968 -3.162,2.28 -4.142,3.937 -0.979,1.657 -1.469,3.408 -1.469,5.252 0,1.89 0.506,3.687 1.521,5.389 1.013,1.703 2.413,3.04 4.201,4.014 1.787,0.973 3.746,1.46 5.875,1.46 2.585,0 4.772,-0.728 6.559,-2.187 1.788,-1.457 2.847,-3.348 3.177,-5.67 h -8.01 v -2.425 h 10.828 c -0.022,3.883 -1.175,6.966 -3.458,9.249 -2.283,2.283 -5.337,3.424 -9.163,3.424 -4.646,0 -8.323,-1.582 -11.034,-4.747 -2.083,-2.437 -3.126,-5.255 -3.126,-8.454 0,-2.38 0.598,-4.595 1.794,-6.644 1.195,-2.05 2.835,-3.652 4.919,-4.808 2.083,-1.156 4.441,-1.734 7.07,-1.734 2.129,0 4.133,0.385 6.012,1.153 1.879,0.766 3.713,1.999 5.501,3.695 z"
   id="path232" />
			<path
   style="fill:#f5d704"
   d="m 1477.184,917.631 h 2.89 l 6.429,10.361 6.327,-10.361 h 2.904 l -7.959,13.116 v 12.007 h -2.476 v -12.007 z"
   id="path233" />
			<path
   style="fill:#f5d704"
   d="m 1507.057,920.09 v -2.459 h 13.766 v 2.459 h -5.602 v 22.665 h -2.562 V 920.09 Z"
   id="path234" />
			<path
   style="fill:#f5d704"
   d="m 1536.408,916.999 c 3.806,0 6.99,1.27 9.553,3.809 2.564,2.539 3.845,5.664 3.845,9.377 0,3.677 -1.279,6.797 -3.837,9.359 -2.558,2.562 -5.676,3.843 -9.356,3.843 -3.726,0 -6.871,-1.274 -9.434,-3.826 -2.564,-2.55 -3.845,-5.635 -3.845,-9.257 0,-2.413 0.584,-4.651 1.752,-6.712 1.168,-2.061 2.76,-3.675 4.777,-4.842 2.016,-1.167 4.198,-1.751 6.545,-1.751 z m 0.111,2.443 c -1.859,0 -3.622,0.484 -5.286,1.453 -1.665,0.969 -2.966,2.274 -3.901,3.914 -0.934,1.641 -1.403,3.47 -1.403,5.487 0,2.986 1.035,5.507 3.105,7.564 2.07,2.057 4.564,3.086 7.485,3.086 1.95,0 3.755,-0.473 5.413,-1.418 1.66,-0.946 2.954,-2.239 3.884,-3.881 0.93,-1.64 1.394,-3.464 1.394,-5.47 0,-1.993 -0.464,-3.797 -1.394,-5.41 -0.93,-1.613 -2.239,-2.903 -3.925,-3.872 -1.689,-0.97 -3.479,-1.453 -5.372,-1.453 z"
   id="path235" />
			<path
   style="fill:#f5d704"
   d="m 1562.036,920.09 v -2.459 h 13.766 v 2.459 h -5.602 v 22.665 h -2.562 V 920.09 Z"
   id="path236" />
			<path
   style="fill:#f5d704"
   d="m 1579.389,917.631 h 2.511 v 10.538 h 12.792 v -10.538 h 2.511 v 25.124 h -2.511 V 930.629 H 1581.9 v 12.126 h -2.511 z"
   id="path237" />
			<path
   style="fill:#f5d704"
   d="m 1603.335,917.631 h 14.398 v 2.459 h -11.887 v 7.874 h 11.784 v 2.46 h -11.784 v 9.872 h 11.784 v 2.46 h -14.295 z"
   id="path238" />
			<path
   style="fill:#f5d704"
   d="m 1631.892,917.631 h 5.004 c 2.789,0 4.68,0.114 5.671,0.342 1.492,0.342 2.704,1.075 3.637,2.198 0.933,1.123 1.401,2.505 1.401,4.146 0,1.368 -0.321,2.571 -0.965,3.609 -0.643,1.038 -1.562,1.821 -2.758,2.352 -1.195,0.529 -2.847,0.801 -4.954,0.812 l 9.035,11.666 h -3.106 l -9.035,-11.666 h -1.419 v 11.666 h -2.511 z m 2.51,2.459 v 8.54 l 4.328,0.034 c 1.677,0 2.917,-0.159 3.721,-0.477 0.803,-0.32 1.431,-0.829 1.882,-1.529 0.451,-0.7 0.675,-1.483 0.675,-2.349 0,-0.842 -0.228,-1.608 -0.684,-2.297 -0.457,-0.688 -1.055,-1.182 -1.797,-1.477 -0.741,-0.296 -1.974,-0.445 -3.695,-0.445 z"
   id="path239" />
			<path
   style="fill:#f5d704"
   d="m 1653.002,917.631 h 14.398 v 2.459 h -11.887 v 7.874 h 11.784 v 2.46 h -11.784 v 9.872 h 11.784 v 2.46 h -14.295 z"
   id="path240" />
			<path
   style="fill:#f5d704"
   d="m 1682.003,917.631 11.717,25.124 h -2.711 l -3.951,-8.267 h -10.824 l -3.913,8.267 h -2.801 l 11.87,-25.124 z m -0.317,5.337 -4.305,9.094 h 8.59 z"
   id="path241" />
			<path
   style="fill:#f5d704"
   d="m 1697.614,917.631 h 2.511 v 22.698 h 9.668 v 2.425 h -12.178 v -25.123 z"
   id="path242" />
			<path
   style="fill:#f5d704"
   d="m 1722.037,917.631 h 2.579 l 5.132,18.104 7.202,-18.104 h 0.521 l 7.119,18.104 5.22,-18.104 h 2.56 l -7.219,25.124 h -0.466 l -7.456,-19.01 -7.6,19.01 h -0.469 z"
   id="path243" />
			<path
   style="fill:#f5d704"
   d="m 1768.999,916.999 c 3.806,0 6.99,1.27 9.553,3.809 2.564,2.539 3.846,5.664 3.846,9.377 0,3.677 -1.279,6.797 -3.837,9.359 -2.558,2.562 -5.676,3.843 -9.356,3.843 -3.726,0 -6.871,-1.274 -9.434,-3.826 -2.564,-2.55 -3.845,-5.635 -3.845,-9.257 0,-2.413 0.584,-4.651 1.752,-6.712 1.167,-2.061 2.76,-3.675 4.777,-4.842 2.014,-1.167 4.196,-1.751 6.544,-1.751 z m 0.111,2.443 c -1.86,0 -3.622,0.484 -5.286,1.453 -1.665,0.969 -2.966,2.274 -3.901,3.914 -0.934,1.641 -1.403,3.47 -1.403,5.487 0,2.986 1.035,5.507 3.105,7.564 2.069,2.057 4.564,3.086 7.485,3.086 1.95,0 3.754,-0.473 5.413,-1.418 1.66,-0.946 2.954,-2.239 3.884,-3.881 0.93,-1.64 1.394,-3.464 1.394,-5.47 0,-1.993 -0.464,-3.797 -1.394,-5.41 -0.93,-1.613 -2.239,-2.903 -3.925,-3.872 -1.689,-0.97 -3.479,-1.453 -5.372,-1.453 z"
   id="path244" />
			<path
   style="fill:#f5d704"
   d="m 1787.573,917.631 h 5.004 c 2.789,0 4.68,0.114 5.671,0.342 1.492,0.342 2.704,1.075 3.637,2.198 0.933,1.123 1.401,2.505 1.401,4.146 0,1.368 -0.321,2.571 -0.965,3.609 -0.643,1.038 -1.562,1.821 -2.758,2.352 -1.195,0.529 -2.847,0.801 -4.954,0.812 l 9.035,11.666 h -3.106 l -9.035,-11.666 h -1.419 v 11.666 h -2.511 z m 2.511,2.459 v 8.54 l 4.328,0.034 c 1.677,0 2.917,-0.159 3.721,-0.477 0.803,-0.32 1.431,-0.829 1.882,-1.529 0.45,-0.7 0.675,-1.483 0.675,-2.349 0,-0.842 -0.228,-1.608 -0.684,-2.297 -0.457,-0.688 -1.055,-1.182 -1.796,-1.477 -0.741,-0.296 -1.974,-0.445 -3.695,-0.445 z"
   id="path245" />
			<path
   style="fill:#f5d704"
   d="m 1808.665,917.631 h 2.511 v 22.698 h 9.668 v 2.425 h -12.178 v -25.123 z"
   id="path246" />
			<path
   style="fill:#f5d704"
   d="m 1824.823,942.755 v -25.124 h 5.21 c 3.757,0 6.484,0.302 8.18,0.905 2.437,0.855 4.342,2.334 5.713,4.441 1.372,2.107 2.058,4.617 2.058,7.532 0,2.516 -0.544,4.731 -1.631,6.644 -1.088,1.913 -2.5,3.324 -4.236,4.236 -1.737,0.911 -4.171,1.366 -7.302,1.366 z m 2.408,-2.374 h 2.904 c 3.473,0 5.881,-0.216 7.225,-0.648 1.89,-0.614 3.375,-1.72 4.458,-3.319 1.082,-1.599 1.623,-3.553 1.623,-5.862 0,-2.423 -0.586,-4.494 -1.759,-6.212 -1.173,-1.717 -2.807,-2.895 -4.901,-3.532 -1.572,-0.477 -4.162,-0.717 -7.772,-0.717 h -1.776 v 20.29 z"
   id="path247" />
		</g>
		<path
   style="fill:none"
   d="m 1205.088,821.987 c 8.591,-3.842 17.015,-7.732 25.245,-11.662 l -3.618,-51.664 z"
   id="path248" />
		<path
   style="fill:none"
   d="m 1364.082,792.561 c 18.975,0 28.842,-10.625 28.842,-25.806 0,-9.678 -4.174,-17.525 -12.263,-21.863 -14.977,11.89 -32.534,24.03 -52.252,36.164 v 11.505 z"
   id="path249" />
		<path
   style="fill:none"
   d="m 1108.072,860.453 c 10.254,-3.59 20.525,-7.313 30.788,-11.194 2.205,-0.834 4.402,-1.672 6.593,-2.514 l -30.057,-87.831 z"
   id="path250" />
		<path
   style="fill:#00458b"
   d="m 814.347,712.867 h -32.384 v 99.898 c 9.572,-8.131 20.407,-16.407 32.384,-24.746 z"
   id="path251" />
		<path
   style="fill:#00458b"
   d="m 1106.035,888.701 0.484,-6.716 c -6.79,2.3 -13.571,4.546 -20.334,6.716 z"
   id="path252" />
		<path
   style="fill:#00458b"
   d="m 1157.647,882.376 h 26.817 l 11.746,-34.395 c -14.363,6.069 -29.139,11.992 -44.267,17.729 z"
   id="path253" />
		<path
   style="fill:#00458b"
   d="m 1235.822,888.701 h 30.107 l -5.063,-70.381 c -9.4,4.685 -19.075,9.326 -28.999,13.908 z"
   id="path254" />
		<path
   style="fill:#00458b"
   d="m 1392.923,766.756 c 0,15.18 -9.867,25.806 -28.842,25.806 h -35.673 v -11.505 c -10.229,6.294 -21.044,12.586 -32.384,18.84 v 88.804 h 32.384 v -67.804 h 37.191 c 36.685,0 60.214,-21.251 60.214,-54.141 0,-18.661 -7.621,-33.59 -21.043,-42.962 -7.055,6.906 -15.112,13.956 -24.11,21.099 8.09,4.338 12.263,12.185 12.263,21.863 z"
   id="path255" />
		<polygon
   style="fill:#00458b"
   points="1418.975,888.701 1451.106,888.701 1499.429,746.77 1548.005,888.701 1579.882,888.701 1518.91,712.867 1479.695,712.867 "
   id="polygon255" />
		<polygon
   style="fill:#00458b"
   points="1686.887,888.701 1719.019,888.701 1767.341,746.77 1815.917,888.701 1847.794,888.701 1786.822,712.867 1747.607,712.867 "
   id="polygon256" />
		<g
   id="g260">
			<path
   style="fill:#f5d704"
   d="m 955.29,733.285 -53.668,155.416 h 32.13 l 9.448,-27.752 v 2.629 h 66.653 l -7,-23.864 H 950.43 l 31.645,-92.945 47.362,138.387 c 9.58,-2.663 19.228,-5.46 28.941,-8.422 l -56.727,-163.593 c -15.946,6.53 -31.431,13.267 -46.361,20.144 z"
   id="path256" />
			<path
   style="fill:#f5d704"
   d="m 814.347,814.776 c -12.846,9.878 -23.739,19.521 -32.384,28.738 v 45.187 H 897.33 v -28.842 h -82.983 z"
   id="path257" />
			<path
   style="fill:#f5d704"
   d="m 1223.426,712.867 v 0.253 l -7.337,-0.253 -42.091,122.489 c 10.58,-4.374 20.953,-8.836 31.09,-13.369 l 21.627,-63.327 3.618,51.664 c 9.928,-4.741 19.581,-9.537 28.924,-14.367 l -5.978,-83.09 z"
   id="path258" />
			<path
   style="fill:#f5d704"
   d="m 1118.685,713.121 v -0.253 h -30.107 l -11.364,157.949 c 10.252,-3.303 20.543,-6.752 30.858,-10.363 l 7.324,-101.54 30.057,87.831 c 7.894,-3.035 15.691,-6.13 23.387,-9.27 l -42.818,-124.608 z"
   id="path259" />
			<path
   style="fill:#f5d704"
   d="m 1365.599,712.867 h -69.574 v 62.98 c 11.486,-6.659 22.307,-13.326 32.384,-19.95 v -14.694 h 21.221 c 12.484,-9.139 23.377,-18.112 32.449,-26.772 -5.126,-1.027 -10.63,-1.564 -16.48,-1.564 z"
   id="path260" />
		</g>
		<g
   id="g265">
			<path
   style="fill:#f5d704"
   d="m 955.29,733.285 -53.668,155.416 h 32.13 l 9.448,-27.752 v 2.629 h 66.653 l -7,-23.864 H 950.43 l 31.645,-92.945 47.362,138.387 c 9.58,-2.663 19.228,-5.46 28.941,-8.422 l -56.727,-163.593 c -15.946,6.53 -31.431,13.267 -46.361,20.144 z"
   id="path261" />
			<path
   style="fill:#f5d704"
   d="m 814.347,814.776 c -12.846,9.878 -23.739,19.521 -32.384,28.738 v 45.187 H 897.33 v -28.842 h -82.983 z"
   id="path262" />
			<path
   style="fill:#f5d704"
   d="m 1216.089,712.867 -42.091,122.489 c 10.58,-4.374 20.953,-8.836 31.09,-13.369 l 21.627,-63.327 3.618,51.664 c 9.928,-4.741 19.581,-9.537 28.924,-14.367 l -5.978,-83.09 z"
   id="path263" />
			<path
   style="fill:#f5d704"
   d="m 1088.578,712.867 -11.364,157.949 c 10.252,-3.303 20.543,-6.752 30.858,-10.363 l 7.324,-101.54 30.057,87.831 c 7.894,-3.035 15.691,-6.13 23.387,-9.27 l -42.818,-124.608 h -37.444 z"
   id="path264" />
			<path
   style="fill:#f5d704"
   d="m 1365.599,712.867 h -69.574 v 62.98 c 11.486,-6.659 22.307,-13.326 32.384,-19.95 v -14.694 h 21.221 c 12.484,-9.139 23.377,-18.112 32.449,-26.772 -5.126,-1.027 -10.63,-1.564 -16.48,-1.564 z"
   id="path265" />
		</g>
		<polygon
   style="fill:#00458b"
   points="1457.057,839.714 1516.71,839.714 1523.71,863.578 1457.057,863.578 "
   id="polygon265" />
		<polygon
   style="fill:#00458b"
   points="1722.598,839.714 1782.25,839.714 1789.25,863.578 1722.598,863.578 "
   id="polygon266" />
	</g>
	<path
   style="fill:#00458b"
   d="m 1453.269,637.705 c -13.706,-19.256 -49.604,-29.179 -101.329,-29.179 -19.528,0 -64.949,4.96841 -106.7903,11.83061 0.162,1.063 -36.4435,11.19794 1.2896,3.25 1.5637,-0.32937 -36.4118,7.67797 -36.7428,9.17597 24.324,-3.088 123.5985,-16.72258 143.5615,-16.72258 31.375,0 71.706,4.114 85.66,23.717 4.502,6.325 8.357,17.368 1.152,34.051 -5.325,12.326 -15.763,25.961 -31.021,40.528 -9.887,9.438 -21.857,19.317 -35.579,29.362 -7.192,5.266 -14.969,10.652 -23.116,16.006 -10.916,7.176 -22.75,14.467 -35.175,21.671 -12.62,7.318 -26.032,14.653 -39.862,21.802 -10.094,5.22 -20.635,10.456 -31.326,15.561 -8.846,4.224 -18.041,8.471 -27.33,12.625 -10.994,4.916 -22.314,9.784 -33.645,14.467 -1.855,0.767 -3.714,1.532 -5.58,2.293 -8.441,3.444 -16.954,6.818 -25.304,10.029 -2.37,0.911 -4.747,1.818 -7.132,2.72 -10.636,4.021 -21.841,8.095 -33.302,12.108 -10.836,3.794 -22.066,7.565 -33.38,11.21 -7.424,2.392 -14.089,4.485 -20.377,6.403 -10.073,3.072 -20.611,6.139 -31.317,9.113 -55.065,15.303 -106.284,25.659 -152.234,30.779 -20.198,2.251 -38.714,3.358 -55.272,3.358 -44.902,0 -75.458,-8.135 -86.518,-23.671 -4.503,-6.326 -8.357,-17.37 -1.149,-34.052 4.236,-9.805 11.748,-20.497 22.327,-31.777 9.453,-10.08 21.443,-20.725 35.636,-31.637 38.228,-29.396 91.13,-59.994 152.988,-88.489 16.3,-7.507 33.181,-14.841 50.174,-21.799 11.197,-4.586 24.0865,-8.28056 35.4115,-12.56356 75.747,-28.641 151.915,-50.128 220.666,-62.304 -1.335,-2.309 -2.9111,-4.44493 -3.3071,-7.19393 -70.551,12.364 -149.5144,33.10049 -227.1074,62.43749 -86.474,32.696 -165.062,72.259 -221.283,111.403 -12.719,8.855 -24.289,17.694 -34.385,26.272 -23.547,20.001 -39.03,38.347 -46.02,54.529 -6.307,14.598 -5.751,26.781 1.699,37.245 13.647,19.173 48.542,29.307 100.91,29.307 17.584,0 37.102,-1.182 58.011,-3.51 61.275,-6.826 132.819,-22.992 206.899,-46.752 6.937,-2.226 14.067,-4.58 21.797,-7.199 16.333,-5.532 32.285,-11.237 47.414,-16.958 l 1.279,-0.487 c 16.027,-6.078 31.989,-12.471 47.45,-19.004 12.938,-5.467 25.792,-11.146 38.203,-16.878 10.559,-4.876 21.008,-9.887 31.056,-14.895 12.941,-6.45 25.6,-13.082 37.623,-19.714 12.085,-6.665 23.728,-13.44 34.608,-20.134 21.063,-12.961 39.783,-25.916 55.641,-38.504 9.493,-7.536 18.06,-15.033 25.465,-22.281 14.891,-14.578 25.106,-28.138 30.363,-40.306 6.306,-14.596 5.75,-26.778 -1.7,-37.243 z"
   id="path266" />
	
</g>

</svg>
